<mxfile host="app.diagrams.net" modified="2023-11-29T20:23:49.871Z" agent="Mozilla/5.0 (Windows NT 10.0; Win64; x64; rv:120.0) Gecko/20100101 Firefox/120.0" etag="utqTGmstHj0dN6ibSBU-" version="22.1.5" type="github">
  <diagram name="Page-1" id="97916047-d0de-89f5-080d-49f4d83e522f">
    <mxGraphModel dx="2074" dy="754" grid="1" gridSize="10" guides="1" tooltips="1" connect="1" arrows="1" fold="1" page="1" pageScale="1.5" pageWidth="1169" pageHeight="827" background="none" math="0" shadow="0">
      <root>
        <mxCell id="0" />
        <mxCell id="1" parent="0" />
        <mxCell id="2" value="APP" style="rounded=1;fillColor=#10739E;strokeColor=none;shadow=1;gradientColor=none;fontStyle=1;fontColor=#FFFFFF;fontSize=36;fontFamily=Roboto;fontSource=https%3A%2F%2Ffonts.googleapis.com%2Fcss%3Ffamily%3DRoboto;" parent="1" vertex="1">
          <mxGeometry x="730" y="10" width="200" height="60" as="geometry" />
        </mxCell>
        <mxCell id="3" value="AuthProvider" style="rounded=1;fillColor=#10739E;strokeColor=none;shadow=1;gradientColor=none;fontStyle=1;fontColor=#FFFFFF;fontSize=25;fontFamily=Roboto;fontSource=https%3A%2F%2Ffonts.googleapis.com%2Fcss%3Ffamily%3DRoboto;" parent="1" vertex="1">
          <mxGeometry x="590" y="230" width="220" height="60" as="geometry" />
        </mxCell>
        <mxCell id="7" value="Footer" style="rounded=1;fillColor=#10739E;strokeColor=none;shadow=1;gradientColor=none;fontStyle=1;fontColor=#FFFFFF;fontSize=27;fontFamily=Roboto;fontSource=https%3A%2F%2Ffonts.googleapis.com%2Fcss%3Ffamily%3DRoboto;" parent="1" vertex="1">
          <mxGeometry x="860" y="230" width="200" height="60" as="geometry" />
        </mxCell>
        <mxCell id="29" value="" style="edgeStyle=elbowEdgeStyle;elbow=vertical;strokeWidth=4;endArrow=block;endFill=1;fontStyle=1;strokeColor=#23445D;exitX=0.136;exitY=1.017;exitDx=0;exitDy=0;exitPerimeter=0;entryX=0.5;entryY=0;entryDx=0;entryDy=0;" parent="1" source="3" target="DDBbIjbZdtOTzuVg0Zhd-32" edge="1">
          <mxGeometry x="22" y="165.5" width="100" height="100" as="geometry">
            <mxPoint x="400" y="322" as="sourcePoint" />
            <mxPoint x="399.5" y="360" as="targetPoint" />
          </mxGeometry>
        </mxCell>
        <mxCell id="bXJv0DC4jWQR6LizPDog-55" value="" style="edgeStyle=elbowEdgeStyle;elbow=vertical;strokeWidth=4;endArrow=block;endFill=1;fontStyle=1;strokeColor=#23445D;" parent="1" edge="1">
          <mxGeometry x="22" y="165.5" width="100" height="100" as="geometry">
            <mxPoint x="810" y="170" as="sourcePoint" />
            <mxPoint x="700" y="230" as="targetPoint" />
          </mxGeometry>
        </mxCell>
        <mxCell id="bXJv0DC4jWQR6LizPDog-60" value="" style="edgeStyle=elbowEdgeStyle;elbow=vertical;strokeWidth=4;endArrow=block;endFill=1;fontStyle=1;strokeColor=#23445D;" parent="1" edge="1">
          <mxGeometry x="22" y="165.5" width="100" height="100" as="geometry">
            <mxPoint x="830" y="70" as="sourcePoint" />
            <mxPoint x="829.5" y="110" as="targetPoint" />
            <Array as="points" />
          </mxGeometry>
        </mxCell>
        <mxCell id="DDBbIjbZdtOTzuVg0Zhd-29" value="ErrorBoundary" style="rounded=1;fillColor=#10739E;strokeColor=none;shadow=1;gradientColor=none;fontStyle=1;fontColor=#FFFFFF;fontSize=27;fontFamily=Roboto;fontSource=https%3A%2F%2Ffonts.googleapis.com%2Fcss%3Ffamily%3DRoboto;" vertex="1" parent="1">
          <mxGeometry x="730" y="110" width="200" height="60" as="geometry" />
        </mxCell>
        <mxCell id="DDBbIjbZdtOTzuVg0Zhd-31" value="" style="edgeStyle=elbowEdgeStyle;elbow=vertical;strokeWidth=4;endArrow=block;endFill=1;fontStyle=1;strokeColor=#23445D;exitX=0.56;exitY=1.033;exitDx=0;exitDy=0;exitPerimeter=0;" edge="1" parent="1" source="DDBbIjbZdtOTzuVg0Zhd-29">
          <mxGeometry x="22" y="165.5" width="100" height="100" as="geometry">
            <mxPoint x="840" y="180" as="sourcePoint" />
            <mxPoint x="960" y="230" as="targetPoint" />
          </mxGeometry>
        </mxCell>
        <mxCell id="DDBbIjbZdtOTzuVg0Zhd-32" value="Header" style="rounded=1;fillColor=#10739E;strokeColor=none;shadow=1;gradientColor=none;fontStyle=1;fontColor=#FFFFFF;fontSize=25;fontFamily=Roboto;fontSource=https%3A%2F%2Ffonts.googleapis.com%2Fcss%3Ffamily%3DRoboto;" vertex="1" parent="1">
          <mxGeometry x="210" y="360" width="220" height="60" as="geometry" />
        </mxCell>
        <mxCell id="DDBbIjbZdtOTzuVg0Zhd-33" value="Notification" style="rounded=1;fillColor=#10739E;strokeColor=none;shadow=1;gradientColor=none;fontStyle=1;fontColor=#FFFFFF;fontSize=25;fontFamily=Roboto;fontSource=https%3A%2F%2Ffonts.googleapis.com%2Fcss%3Ffamily%3DRoboto;" vertex="1" parent="1">
          <mxGeometry x="877" y="360" width="220" height="60" as="geometry" />
        </mxCell>
        <mxCell id="DDBbIjbZdtOTzuVg0Zhd-34" value="Views" style="rounded=1;fillColor=#10739E;strokeColor=none;shadow=1;gradientColor=none;fontStyle=1;fontColor=#FFFFFF;fontSize=25;fontFamily=Roboto;fontSource=https%3A%2F%2Ffonts.googleapis.com%2Fcss%3Ffamily%3DRoboto;" vertex="1" parent="1">
          <mxGeometry x="590" y="360" width="220" height="60" as="geometry" />
        </mxCell>
        <mxCell id="DDBbIjbZdtOTzuVg0Zhd-40" value="" style="edgeStyle=elbowEdgeStyle;elbow=vertical;strokeWidth=4;endArrow=block;endFill=1;fontStyle=1;strokeColor=#23445D;" edge="1" parent="1">
          <mxGeometry x="22" y="165.5" width="100" height="100" as="geometry">
            <mxPoint x="699.5" y="290" as="sourcePoint" />
            <mxPoint x="699.5" y="360" as="targetPoint" />
            <Array as="points">
              <mxPoint x="709.5" y="320" />
            </Array>
          </mxGeometry>
        </mxCell>
        <mxCell id="DDBbIjbZdtOTzuVg0Zhd-41" value="" style="edgeStyle=elbowEdgeStyle;elbow=vertical;strokeWidth=4;endArrow=block;endFill=1;fontStyle=1;strokeColor=#23445D;" edge="1" parent="1" target="DDBbIjbZdtOTzuVg0Zhd-33">
          <mxGeometry x="22" y="165.5" width="100" height="100" as="geometry">
            <mxPoint x="780" y="290" as="sourcePoint" />
            <mxPoint x="950" y="379" as="targetPoint" />
          </mxGeometry>
        </mxCell>
        <mxCell id="DDBbIjbZdtOTzuVg0Zhd-111" style="edgeStyle=none;rounded=0;orthogonalLoop=1;jettySize=auto;html=1;entryX=0.5;entryY=0;entryDx=0;entryDy=0;" edge="1" parent="1" source="DDBbIjbZdtOTzuVg0Zhd-42" target="DDBbIjbZdtOTzuVg0Zhd-67">
          <mxGeometry relative="1" as="geometry">
            <Array as="points">
              <mxPoint x="490" y="560" />
              <mxPoint x="120" y="580" />
            </Array>
          </mxGeometry>
        </mxCell>
        <mxCell id="DDBbIjbZdtOTzuVg0Zhd-112" style="edgeStyle=none;rounded=0;orthogonalLoop=1;jettySize=auto;html=1;entryX=0.5;entryY=0;entryDx=0;entryDy=0;" edge="1" parent="1" source="DDBbIjbZdtOTzuVg0Zhd-42" target="DDBbIjbZdtOTzuVg0Zhd-69">
          <mxGeometry relative="1" as="geometry">
            <Array as="points">
              <mxPoint x="490" y="580" />
              <mxPoint x="320" y="590" />
            </Array>
          </mxGeometry>
        </mxCell>
        <mxCell id="DDBbIjbZdtOTzuVg0Zhd-113" style="edgeStyle=none;rounded=0;orthogonalLoop=1;jettySize=auto;html=1;entryX=0.5;entryY=0;entryDx=0;entryDy=0;" edge="1" parent="1" source="DDBbIjbZdtOTzuVg0Zhd-42" target="DDBbIjbZdtOTzuVg0Zhd-79">
          <mxGeometry relative="1" as="geometry">
            <Array as="points">
              <mxPoint x="1040" y="520" />
            </Array>
          </mxGeometry>
        </mxCell>
        <mxCell id="DDBbIjbZdtOTzuVg0Zhd-115" style="edgeStyle=none;rounded=0;orthogonalLoop=1;jettySize=auto;html=1;entryX=0.5;entryY=0;entryDx=0;entryDy=0;" edge="1" parent="1" source="DDBbIjbZdtOTzuVg0Zhd-42" target="DDBbIjbZdtOTzuVg0Zhd-116">
          <mxGeometry relative="1" as="geometry">
            <mxPoint x="570" y="910" as="targetPoint" />
            <Array as="points">
              <mxPoint x="480" y="900" />
              <mxPoint x="280" y="920" />
            </Array>
          </mxGeometry>
        </mxCell>
        <mxCell id="DDBbIjbZdtOTzuVg0Zhd-118" style="edgeStyle=none;rounded=0;orthogonalLoop=1;jettySize=auto;html=1;entryX=0.5;entryY=0;entryDx=0;entryDy=0;" edge="1" parent="1" source="DDBbIjbZdtOTzuVg0Zhd-42" target="DDBbIjbZdtOTzuVg0Zhd-117">
          <mxGeometry relative="1" as="geometry" />
        </mxCell>
        <mxCell id="DDBbIjbZdtOTzuVg0Zhd-119" style="edgeStyle=none;rounded=0;orthogonalLoop=1;jettySize=auto;html=1;entryX=0.453;entryY=-0.017;entryDx=0;entryDy=0;entryPerimeter=0;" edge="1" parent="1" source="DDBbIjbZdtOTzuVg0Zhd-42" target="DDBbIjbZdtOTzuVg0Zhd-120">
          <mxGeometry relative="1" as="geometry">
            <mxPoint x="730" y="930" as="targetPoint" />
            <Array as="points">
              <mxPoint x="630" y="880" />
              <mxPoint x="740" y="900" />
            </Array>
          </mxGeometry>
        </mxCell>
        <mxCell id="DDBbIjbZdtOTzuVg0Zhd-123" style="edgeStyle=none;rounded=0;orthogonalLoop=1;jettySize=auto;html=1;entryX=0.529;entryY=0;entryDx=0;entryDy=0;entryPerimeter=0;" edge="1" parent="1" source="DDBbIjbZdtOTzuVg0Zhd-42" target="DDBbIjbZdtOTzuVg0Zhd-124">
          <mxGeometry relative="1" as="geometry">
            <mxPoint x="1950" y="540" as="targetPoint" />
            <Array as="points">
              <mxPoint x="1520" y="500" />
              <mxPoint x="1950" y="500" />
              <mxPoint x="1950" y="540" />
              <mxPoint x="1950" y="560" />
            </Array>
          </mxGeometry>
        </mxCell>
        <mxCell id="DDBbIjbZdtOTzuVg0Zhd-125" style="edgeStyle=none;rounded=0;orthogonalLoop=1;jettySize=auto;html=1;" edge="1" parent="1" source="DDBbIjbZdtOTzuVg0Zhd-42">
          <mxGeometry relative="1" as="geometry">
            <mxPoint x="1630" y="610" as="targetPoint" />
            <Array as="points">
              <mxPoint x="1250" y="550" />
              <mxPoint x="1630" y="560" />
            </Array>
          </mxGeometry>
        </mxCell>
        <mxCell id="DDBbIjbZdtOTzuVg0Zhd-42" value="RoutesWrapper" style="rounded=1;fillColor=#10739E;strokeColor=none;shadow=1;gradientColor=none;fontStyle=1;fontColor=#FFFFFF;fontSize=25;fontFamily=Roboto;fontSource=https%3A%2F%2Ffonts.googleapis.com%2Fcss%3Ffamily%3DRoboto;" vertex="1" parent="1">
          <mxGeometry x="590" y="470" width="220" height="60" as="geometry" />
        </mxCell>
        <mxCell id="DDBbIjbZdtOTzuVg0Zhd-43" value="" style="edgeStyle=elbowEdgeStyle;elbow=vertical;strokeWidth=4;endArrow=block;endFill=1;fontStyle=1;strokeColor=#23445D;entryX=0.5;entryY=0;entryDx=0;entryDy=0;" edge="1" parent="1" target="DDBbIjbZdtOTzuVg0Zhd-42">
          <mxGeometry x="22" y="165.5" width="100" height="100" as="geometry">
            <mxPoint x="700" y="430" as="sourcePoint" />
            <mxPoint x="700" y="460" as="targetPoint" />
            <Array as="points">
              <mxPoint x="709.5" y="420" />
            </Array>
          </mxGeometry>
        </mxCell>
        <mxCell id="DDBbIjbZdtOTzuVg0Zhd-44" value="Navigation" style="rounded=1;fillColor=#10739E;strokeColor=none;shadow=1;gradientColor=none;fontStyle=1;fontColor=#FFFFFF;fontSize=25;fontFamily=Roboto;fontSource=https%3A%2F%2Ffonts.googleapis.com%2Fcss%3Ffamily%3DRoboto;" vertex="1" parent="1">
          <mxGeometry x="90" y="470" width="220" height="60" as="geometry" />
        </mxCell>
        <mxCell id="DDBbIjbZdtOTzuVg0Zhd-45" value="Profile menu" style="rounded=1;fillColor=#10739E;strokeColor=none;shadow=1;gradientColor=none;fontStyle=1;fontColor=#FFFFFF;fontSize=25;fontFamily=Roboto;fontSource=https%3A%2F%2Ffonts.googleapis.com%2Fcss%3Ffamily%3DRoboto;" vertex="1" parent="1">
          <mxGeometry x="330" y="470" width="220" height="60" as="geometry" />
        </mxCell>
        <mxCell id="DDBbIjbZdtOTzuVg0Zhd-51" value="" style="edgeStyle=orthogonalEdgeStyle;elbow=vertical;strokeWidth=4;endArrow=block;endFill=1;fontStyle=1;strokeColor=#23445D;" edge="1" parent="1">
          <mxGeometry x="22" y="165.5" width="100" height="100" as="geometry">
            <mxPoint x="390" y="420" as="sourcePoint" />
            <mxPoint x="439.5" y="470" as="targetPoint" />
            <Array as="points">
              <mxPoint x="390" y="440" />
              <mxPoint x="440" y="440" />
            </Array>
          </mxGeometry>
        </mxCell>
        <mxCell id="DDBbIjbZdtOTzuVg0Zhd-57" value="" style="edgeStyle=orthogonalEdgeStyle;elbow=vertical;strokeWidth=4;endArrow=classic;endFill=1;fontStyle=1;strokeColor=#23445D;exitX=0.355;exitY=1.017;exitDx=0;exitDy=0;exitPerimeter=0;entryX=0.545;entryY=0.05;entryDx=0;entryDy=0;entryPerimeter=0;" edge="1" parent="1" source="DDBbIjbZdtOTzuVg0Zhd-32" target="DDBbIjbZdtOTzuVg0Zhd-44">
          <mxGeometry x="22" y="165.5" width="100" height="100" as="geometry">
            <mxPoint x="290" y="450" as="sourcePoint" />
            <mxPoint x="210" y="460" as="targetPoint" />
            <Array as="points">
              <mxPoint x="288" y="440" />
              <mxPoint x="210" y="440" />
            </Array>
          </mxGeometry>
        </mxCell>
        <mxCell id="DDBbIjbZdtOTzuVg0Zhd-67" value="HomePage" style="rounded=1;fillColor=#10739E;strokeColor=none;shadow=1;gradientColor=none;fontStyle=1;fontColor=#FFFFFF;fontSize=25;fontFamily=Roboto;fontSource=https%3A%2F%2Ffonts.googleapis.com%2Fcss%3Ffamily%3DRoboto;" vertex="1" parent="1">
          <mxGeometry x="10" y="610" width="150" height="60" as="geometry" />
        </mxCell>
        <mxCell id="DDBbIjbZdtOTzuVg0Zhd-88" value="" style="edgeStyle=none;rounded=0;orthogonalLoop=1;jettySize=auto;html=1;" edge="1" parent="1" source="DDBbIjbZdtOTzuVg0Zhd-69" target="DDBbIjbZdtOTzuVg0Zhd-84">
          <mxGeometry relative="1" as="geometry" />
        </mxCell>
        <mxCell id="DDBbIjbZdtOTzuVg0Zhd-69" value="TattoosProvider" style="rounded=1;fillColor=#10739E;strokeColor=none;shadow=1;gradientColor=none;fontStyle=1;fontColor=#FFFFFF;fontSize=25;fontFamily=Roboto;fontSource=https%3A%2F%2Ffonts.googleapis.com%2Fcss%3Ffamily%3DRoboto;" vertex="1" parent="1">
          <mxGeometry x="220" y="610" width="200" height="60" as="geometry" />
        </mxCell>
        <mxCell id="DDBbIjbZdtOTzuVg0Zhd-70" value="GalleryPage" style="rounded=1;fillColor=#10739E;strokeColor=none;shadow=1;gradientColor=none;fontStyle=1;fontColor=#FFFFFF;fontSize=25;fontFamily=Roboto;fontSource=https%3A%2F%2Ffonts.googleapis.com%2Fcss%3Ffamily%3DRoboto;" vertex="1" parent="1">
          <mxGeometry x="140" y="710" width="150" height="60" as="geometry" />
        </mxCell>
        <mxCell id="DDBbIjbZdtOTzuVg0Zhd-71" value="UploadPage" style="rounded=1;fillColor=#10739E;strokeColor=none;shadow=1;gradientColor=none;fontStyle=1;fontColor=#FFFFFF;fontSize=25;fontFamily=Roboto;fontSource=https%3A%2F%2Ffonts.googleapis.com%2Fcss%3Ffamily%3DRoboto;" vertex="1" parent="1">
          <mxGeometry x="320" y="810" width="150" height="60" as="geometry" />
        </mxCell>
        <mxCell id="DDBbIjbZdtOTzuVg0Zhd-110" style="edgeStyle=none;rounded=0;orthogonalLoop=1;jettySize=auto;html=1;entryX=0.474;entryY=0;entryDx=0;entryDy=0;entryPerimeter=0;" edge="1" parent="1" source="DDBbIjbZdtOTzuVg0Zhd-79" target="DDBbIjbZdtOTzuVg0Zhd-83">
          <mxGeometry relative="1" as="geometry">
            <mxPoint x="1130" y="700" as="targetPoint" />
            <Array as="points">
              <mxPoint x="1120" y="670" />
              <mxPoint x="1280" y="680" />
            </Array>
          </mxGeometry>
        </mxCell>
        <mxCell id="DDBbIjbZdtOTzuVg0Zhd-79" value="AuthGuard" style="rounded=1;fillColor=#10739E;strokeColor=none;shadow=1;gradientColor=none;fontStyle=1;fontColor=#FFFFFF;fontSize=25;fontFamily=Roboto;fontSource=https%3A%2F%2Ffonts.googleapis.com%2Fcss%3Ffamily%3DRoboto;" vertex="1" parent="1">
          <mxGeometry x="940" y="600" width="200" height="60" as="geometry" />
        </mxCell>
        <mxCell id="DDBbIjbZdtOTzuVg0Zhd-80" value="CommentsPage" style="rounded=1;fillColor=#10739E;strokeColor=none;shadow=1;gradientColor=none;fontStyle=1;fontColor=#FFFFFF;fontSize=24;fontFamily=Roboto;fontSource=https%3A%2F%2Ffonts.googleapis.com%2Fcss%3Ffamily%3DRoboto;" vertex="1" parent="1">
          <mxGeometry x="680" y="760" width="180" height="60" as="geometry" />
        </mxCell>
        <mxCell id="DDBbIjbZdtOTzuVg0Zhd-81" value="LogoutPage" style="rounded=1;fillColor=#10739E;strokeColor=none;shadow=1;gradientColor=none;fontStyle=1;fontColor=#FFFFFF;fontSize=25;fontFamily=Roboto;fontSource=https%3A%2F%2Ffonts.googleapis.com%2Fcss%3Ffamily%3DRoboto;" vertex="1" parent="1">
          <mxGeometry x="900" y="760" width="150" height="60" as="geometry" />
        </mxCell>
        <mxCell id="DDBbIjbZdtOTzuVg0Zhd-82" value="ProfilePage" style="rounded=1;fillColor=#10739E;strokeColor=none;shadow=1;gradientColor=none;fontStyle=1;fontColor=#FFFFFF;fontSize=25;fontFamily=Roboto;fontSource=https%3A%2F%2Ffonts.googleapis.com%2Fcss%3Ffamily%3DRoboto;" vertex="1" parent="1">
          <mxGeometry x="1090" y="760" width="150" height="60" as="geometry" />
        </mxCell>
        <mxCell id="DDBbIjbZdtOTzuVg0Zhd-83" value="EditProfilePage" style="rounded=1;fillColor=#10739E;strokeColor=none;shadow=1;gradientColor=none;fontStyle=1;fontColor=#FFFFFF;fontSize=25;fontFamily=Roboto;fontSource=https%3A%2F%2Ffonts.googleapis.com%2Fcss%3Ffamily%3DRoboto;" vertex="1" parent="1">
          <mxGeometry x="1290" y="760" width="190" height="60" as="geometry" />
        </mxCell>
        <mxCell id="DDBbIjbZdtOTzuVg0Zhd-86" value="" style="edgeStyle=none;rounded=0;orthogonalLoop=1;jettySize=auto;html=1;" edge="1" parent="1" source="DDBbIjbZdtOTzuVg0Zhd-84" target="DDBbIjbZdtOTzuVg0Zhd-71">
          <mxGeometry relative="1" as="geometry" />
        </mxCell>
        <mxCell id="DDBbIjbZdtOTzuVg0Zhd-84" value="AdminGuard" style="rounded=1;fillColor=#10739E;strokeColor=none;shadow=1;gradientColor=none;fontStyle=1;fontColor=#FFFFFF;fontSize=25;fontFamily=Roboto;fontSource=https%3A%2F%2Ffonts.googleapis.com%2Fcss%3Ffamily%3DRoboto;" vertex="1" parent="1">
          <mxGeometry x="320" y="710" width="150" height="60" as="geometry" />
        </mxCell>
        <mxCell id="DDBbIjbZdtOTzuVg0Zhd-90" style="edgeStyle=none;rounded=0;orthogonalLoop=1;jettySize=auto;html=1;entryX=0.613;entryY=-0.067;entryDx=0;entryDy=0;entryPerimeter=0;" edge="1" parent="1" source="DDBbIjbZdtOTzuVg0Zhd-69" target="DDBbIjbZdtOTzuVg0Zhd-70">
          <mxGeometry relative="1" as="geometry" />
        </mxCell>
        <mxCell id="DDBbIjbZdtOTzuVg0Zhd-107" style="edgeStyle=none;rounded=0;orthogonalLoop=1;jettySize=auto;html=1;entryX=0.456;entryY=-0.017;entryDx=0;entryDy=0;entryPerimeter=0;" edge="1" parent="1" source="DDBbIjbZdtOTzuVg0Zhd-79" target="DDBbIjbZdtOTzuVg0Zhd-80">
          <mxGeometry relative="1" as="geometry">
            <Array as="points">
              <mxPoint x="840" y="690" />
            </Array>
          </mxGeometry>
        </mxCell>
        <mxCell id="DDBbIjbZdtOTzuVg0Zhd-108" style="edgeStyle=none;rounded=0;orthogonalLoop=1;jettySize=auto;html=1;entryX=0.413;entryY=-0.05;entryDx=0;entryDy=0;entryPerimeter=0;" edge="1" parent="1" source="DDBbIjbZdtOTzuVg0Zhd-79" target="DDBbIjbZdtOTzuVg0Zhd-81">
          <mxGeometry relative="1" as="geometry">
            <Array as="points">
              <mxPoint x="962" y="710" />
            </Array>
          </mxGeometry>
        </mxCell>
        <mxCell id="DDBbIjbZdtOTzuVg0Zhd-109" style="edgeStyle=none;rounded=0;orthogonalLoop=1;jettySize=auto;html=1;entryX=0.36;entryY=-0.067;entryDx=0;entryDy=0;entryPerimeter=0;" edge="1" parent="1" source="DDBbIjbZdtOTzuVg0Zhd-79" target="DDBbIjbZdtOTzuVg0Zhd-82">
          <mxGeometry relative="1" as="geometry">
            <Array as="points">
              <mxPoint x="1090" y="700" />
            </Array>
          </mxGeometry>
        </mxCell>
        <mxCell id="DDBbIjbZdtOTzuVg0Zhd-116" value="RegisterPage" style="rounded=1;fillColor=#10739E;strokeColor=none;shadow=1;gradientColor=none;fontStyle=1;fontColor=#FFFFFF;fontSize=25;fontFamily=Roboto;fontSource=https%3A%2F%2Ffonts.googleapis.com%2Fcss%3Ffamily%3DRoboto;" vertex="1" parent="1">
          <mxGeometry x="190" y="950" width="170" height="60" as="geometry" />
        </mxCell>
        <mxCell id="DDBbIjbZdtOTzuVg0Zhd-117" value="LoginPage" style="rounded=1;fillColor=#10739E;strokeColor=none;shadow=1;gradientColor=none;fontStyle=1;fontColor=#FFFFFF;fontSize=25;fontFamily=Roboto;fontSource=https%3A%2F%2Ffonts.googleapis.com%2Fcss%3Ffamily%3DRoboto;" vertex="1" parent="1">
          <mxGeometry x="460" y="950" width="170" height="60" as="geometry" />
        </mxCell>
        <mxCell id="DDBbIjbZdtOTzuVg0Zhd-122" style="edgeStyle=none;rounded=0;orthogonalLoop=1;jettySize=auto;html=1;entryX=0.5;entryY=0;entryDx=0;entryDy=0;" edge="1" parent="1" source="DDBbIjbZdtOTzuVg0Zhd-120" target="DDBbIjbZdtOTzuVg0Zhd-121">
          <mxGeometry relative="1" as="geometry" />
        </mxCell>
        <mxCell id="DDBbIjbZdtOTzuVg0Zhd-120" value="BookingPage" style="rounded=1;fillColor=#10739E;strokeColor=none;shadow=1;gradientColor=none;fontStyle=1;fontColor=#FFFFFF;fontSize=25;fontFamily=Roboto;fontSource=https%3A%2F%2Ffonts.googleapis.com%2Fcss%3Ffamily%3DRoboto;" vertex="1" parent="1">
          <mxGeometry x="685" y="950" width="170" height="60" as="geometry" />
        </mxCell>
        <mxCell id="DDBbIjbZdtOTzuVg0Zhd-121" value="Calendar" style="rounded=1;fillColor=#10739E;strokeColor=none;shadow=1;gradientColor=none;fontStyle=1;fontColor=#FFFFFF;fontSize=25;fontFamily=Roboto;fontSource=https%3A%2F%2Ffonts.googleapis.com%2Fcss%3Ffamily%3DRoboto;" vertex="1" parent="1">
          <mxGeometry x="685" y="1060" width="170" height="60" as="geometry" />
        </mxCell>
        <mxCell id="DDBbIjbZdtOTzuVg0Zhd-124" value="ContactPage" style="rounded=1;fillColor=#10739E;strokeColor=none;shadow=1;gradientColor=none;fontStyle=1;fontColor=#FFFFFF;fontSize=25;fontFamily=Roboto;fontSource=https%3A%2F%2Ffonts.googleapis.com%2Fcss%3Ffamily%3DRoboto;" vertex="1" parent="1">
          <mxGeometry x="1860" y="560" width="170" height="60" as="geometry" />
        </mxCell>
        <mxCell id="DDBbIjbZdtOTzuVg0Zhd-126" value="DefaultPage" style="rounded=1;fillColor=#10739E;strokeColor=none;shadow=1;gradientColor=none;fontStyle=1;fontColor=#FFFFFF;fontSize=25;fontFamily=Roboto;fontSource=https%3A%2F%2Ffonts.googleapis.com%2Fcss%3Ffamily%3DRoboto;" vertex="1" parent="1">
          <mxGeometry x="1550" y="610" width="170" height="60" as="geometry" />
        </mxCell>
      </root>
    </mxGraphModel>
  </diagram>
</mxfile>
